<?xml version="1.0" encoding="UTF-8"?>
<!DOCTYPE svg PUBLIC "-//W3C//DTD SVG 1.1//EN" "http://www.w3.org/Graphics/SVG/1.1/DTD/svg11.dtd">
<!-- Creator: CorelDRAW 2019 (64-Bit) -->
<svg xmlns="http://www.w3.org/2000/svg" xml:space="preserve" width="1252px" height="280px" version="1.1" style="shape-rendering:geometricPrecision; text-rendering:geometricPrecision; image-rendering:optimizeQuality; fill-rule:evenodd; clip-rule:evenodd"
viewBox="0 0 1252 279.9"
 xmlns:xlink="http://www.w3.org/1999/xlink">
 <defs>
  <style type="text/css">
   <![CDATA[
    .fil1 {fill:#414141}
    .fil2 {fill:#646464}
    .fil0 {fill:#AF0000}
   ]]>
  </style>
 </defs>
 <g id="Layer_x0020_1">
  <metadata id="CorelCorpID_0Corel-Layer"/>
  <g id="_2303231233680">
   <path class="fil0" d="M72.06 276.37c40.39,-56.71 -35.12,-62.33 -72.06,-97.82 30.21,-10.07 8.49,-40.55 6.36,-65.69 23.13,6.76 53.24,17.2 57.88,-15.63 14.6,5.5 41.59,50.94 49.49,42.55 6.19,-6.58 -7.13,-44.24 -10.42,-57.59 -3.29,-13.35 -5.65,-21.76 -8.1,-41.38 13.17,0.3 24.51,20.78 32.12,19.39 6.23,-1.14 20.17,-59.61 34.15,-60.2l0 276.37c-29.81,-14.42 -57.56,-5.97 -89.42,0z"/>
   <g>
    <path class="fil1" d="M184.77 0l43.05 0 0 232.69 55.61 0 -7.11 43.69 -95.71 -0.01 0 -276.37 4.16 0zm153.03 20.64l56.19 0c13.9,85.24 27.78,170.48 41.65,255.73l-47.37 0 -6.97 -48.42 -37.08 0 -7.06 48.42 -44.54 0c13.89,-85.24 27.78,-170.48 41.65,-255.73l3.53 0zm37.62 165.4l-12.84 -90.67 -12.58 90.67 25.42 0zm59.92 -165.4l41.25 0 14 153.64 14.84 -153.64 49.95 0 14.85 153.63 14 -153.63 41.96 0c-8.63,85.25 -17.29,170.49 -25.94,255.73l-55.91 0 -14.28 -134.86 -14.29 134.86 -59.09 0c-8.62,-85.25 -17.29,-170.49 -25.94,-255.73l4.6 0z"/>
    <path class="fil2" d="M641.38 20.64l57.25 0c20.52,0 36.03,5.63 46.52,16.89 5.24,5.63 9.17,12.55 11.78,20.75 2.55,8.04 3.83,17.27 3.83,27.67l0 24.39c0,21.11 -5.2,37.25 -15.61,48.42 -5.3,5.68 -11.89,9.94 -19.76,12.75 -7.7,2.76 -16.62,4.14 -26.76,4.14l-14.21 0 0 100.72 -47.21 0 0 -255.73 4.17 0zm57.25 111.33c2.7,0 5,-0.36 6.92,-1.07 1.74,-0.64 3.17,-1.59 4.3,-2.85 2.47,-2.74 3.7,-7.82 3.7,-15.24l0 -29.33c0,-7.42 -1.23,-12.5 -3.7,-15.24 -1.13,-1.26 -2.56,-2.21 -4.3,-2.85 -1.92,-0.71 -4.22,-1.07 -6.92,-1.07l-14.21 0 0 67.65 14.21 0zm135.36 147.93c-10.04,0 -18.95,-1.44 -26.72,-4.32 -7.89,-2.93 -14.6,-7.35 -20.13,-13.27l-0.02 0c-5.48,-5.87 -9.59,-12.92 -12.31,-21.15 -2.67,-8.08 -4.01,-17.29 -4.01,-27.63l0 -130.05c0,-20.88 5.44,-37.14 16.32,-48.78l0.02 0c5.53,-5.92 12.24,-10.34 20.13,-13.27 7.77,-2.88 16.68,-4.32 26.72,-4.32 10.04,0 18.95,1.44 26.72,4.32 7.9,2.93 14.62,7.36 20.15,13.27 5.48,5.87 9.59,12.92 12.31,21.15 2.67,8.08 4.01,17.29 4.01,27.63l0 130.05c0,10.34 -1.34,19.55 -4.01,27.63 -2.72,8.23 -6.83,15.28 -12.31,21.15 -5.53,5.91 -12.25,10.34 -20.15,13.27 -7.77,2.88 -16.68,4.32 -26.72,4.32zm0 -43.68c5.41,0 9.38,-1.53 11.9,-4.58 2.72,-3.29 4.08,-8.5 4.08,-15.63l0 -135.01c0,-13.47 -5.33,-20.21 -15.98,-20.21 -5.41,0 -9.38,1.53 -11.9,4.58 -2.72,3.29 -4.08,8.5 -4.08,15.63l0 135.01c0,7.13 1.36,12.34 4.08,15.63 2.52,3.05 6.49,4.58 11.9,4.58zm85.17 -215.58l43.04 0 0 255.73 -47.21 0 0 -255.73 4.17 0zm67.86 0l52 0 31.12 121.85 0 -121.85 42.97 0 0 255.73 -47.32 0 -39.97 -154.75 0 154.75 -42.97 0 0 -255.73 4.17 0zm177.13 43.68l-40.65 0 0 -43.68 128.5 0 0 43.68 -40.64 0 0 212.05 -47.21 0 0 -212.05z"/>
   </g>
  </g>
 </g>
</svg>
